<mxfile host="app.diagrams.net" agent="Mozilla/5.0 (Windows NT 10.0; Win64; x64) AppleWebKit/537.36 (KHTML, like Gecko) Chrome/141.0.0.0 Safari/537.36" version="28.2.8">
  <diagram name="PÃ¡gina-1" id="p0kwf71RInEtmnU2F5rH">
    <mxGraphModel dx="1737" dy="1992" grid="1" gridSize="10" guides="1" tooltips="1" connect="1" arrows="1" fold="1" page="1" pageScale="1" pageWidth="850" pageHeight="1100" math="0" shadow="0">
      <root>
        <mxCell id="0" />
        <mxCell id="1" parent="0" />
        <mxCell id="Tlad2of-mxlrijfLI39x-1" value="Linux" style="shape=umlFrame;whiteSpace=wrap;html=1;pointerEvents=0;" vertex="1" parent="1">
          <mxGeometry x="40" y="-560" width="760" height="410" as="geometry" />
        </mxCell>
        <mxCell id="Tlad2of-mxlrijfLI39x-2" value="platform_device" style="html=1;dropTarget=0;whiteSpace=wrap;" vertex="1" parent="1">
          <mxGeometry x="53" y="-250" width="130" height="60" as="geometry" />
        </mxCell>
        <mxCell id="Tlad2of-mxlrijfLI39x-3" value="" style="shape=module;jettyWidth=8;jettyHeight=4;" vertex="1" parent="Tlad2of-mxlrijfLI39x-2">
          <mxGeometry x="1" width="20" height="20" relative="1" as="geometry">
            <mxPoint x="-27" y="7" as="offset" />
          </mxGeometry>
        </mxCell>
        <mxCell id="Tlad2of-mxlrijfLI39x-4" value="miscdevice" style="html=1;dropTarget=0;whiteSpace=wrap;" vertex="1" parent="1">
          <mxGeometry x="183" y="-250" width="130" height="60" as="geometry" />
        </mxCell>
        <mxCell id="Tlad2of-mxlrijfLI39x-5" value="" style="shape=module;jettyWidth=8;jettyHeight=4;" vertex="1" parent="Tlad2of-mxlrijfLI39x-4">
          <mxGeometry x="1" width="20" height="20" relative="1" as="geometry">
            <mxPoint x="-27" y="7" as="offset" />
          </mxGeometry>
        </mxCell>
        <mxCell id="Tlad2of-mxlrijfLI39x-6" value="timer" style="html=1;dropTarget=0;whiteSpace=wrap;" vertex="1" parent="1">
          <mxGeometry x="313" y="-250" width="130" height="60" as="geometry" />
        </mxCell>
        <mxCell id="Tlad2of-mxlrijfLI39x-7" value="" style="shape=module;jettyWidth=8;jettyHeight=4;" vertex="1" parent="Tlad2of-mxlrijfLI39x-6">
          <mxGeometry x="1" width="20" height="20" relative="1" as="geometry">
            <mxPoint x="-27" y="7" as="offset" />
          </mxGeometry>
        </mxCell>
        <mxCell id="Tlad2of-mxlrijfLI39x-8" value="sysfs" style="html=1;dropTarget=0;whiteSpace=wrap;" vertex="1" parent="1">
          <mxGeometry x="443" y="-250" width="130" height="60" as="geometry" />
        </mxCell>
        <mxCell id="Tlad2of-mxlrijfLI39x-9" value="" style="shape=module;jettyWidth=8;jettyHeight=4;" vertex="1" parent="Tlad2of-mxlrijfLI39x-8">
          <mxGeometry x="1" width="20" height="20" relative="1" as="geometry">
            <mxPoint x="-27" y="7" as="offset" />
          </mxGeometry>
        </mxCell>
        <mxCell id="Tlad2of-mxlrijfLI39x-10" value="mutex" style="html=1;dropTarget=0;whiteSpace=wrap;" vertex="1" parent="1">
          <mxGeometry x="573" y="-250" width="130" height="60" as="geometry" />
        </mxCell>
        <mxCell id="Tlad2of-mxlrijfLI39x-11" value="" style="shape=module;jettyWidth=8;jettyHeight=4;" vertex="1" parent="Tlad2of-mxlrijfLI39x-10">
          <mxGeometry x="1" width="20" height="20" relative="1" as="geometry">
            <mxPoint x="-27" y="7" as="offset" />
          </mxGeometry>
        </mxCell>
        <mxCell id="Tlad2of-mxlrijfLI39x-12" value="wait" style="html=1;dropTarget=0;whiteSpace=wrap;" vertex="1" parent="1">
          <mxGeometry x="703" y="-250" width="80" height="60" as="geometry" />
        </mxCell>
        <mxCell id="Tlad2of-mxlrijfLI39x-13" value="" style="shape=module;jettyWidth=8;jettyHeight=4;" vertex="1" parent="Tlad2of-mxlrijfLI39x-12">
          <mxGeometry x="1" width="20" height="20" relative="1" as="geometry">
            <mxPoint x="-27" y="7" as="offset" />
          </mxGeometry>
        </mxCell>
        <mxCell id="Tlad2of-mxlrijfLI39x-18" value="&lt;p style=&quot;margin:0px;margin-top:6px;text-align:center;&quot;&gt;&lt;b&gt;nxp_simtemp&lt;/b&gt;&lt;/p&gt;&lt;hr size=&quot;1&quot; style=&quot;border-style:solid;&quot;&gt;&lt;p style=&quot;margin:0px;margin-left:8px;&quot;&gt;&lt;br&gt;&lt;/p&gt;" style="align=left;overflow=fill;html=1;dropTarget=0;whiteSpace=wrap;" vertex="1" parent="1">
          <mxGeometry x="110" y="-520" width="640" height="210" as="geometry" />
        </mxCell>
        <mxCell id="Tlad2of-mxlrijfLI39x-19" value="" style="shape=component;jettyWidth=8;jettyHeight=4;" vertex="1" parent="Tlad2of-mxlrijfLI39x-18">
          <mxGeometry x="1" width="20" height="20" relative="1" as="geometry">
            <mxPoint x="-24" y="4" as="offset" />
          </mxGeometry>
        </mxCell>
        <mxCell id="Tlad2of-mxlrijfLI39x-20" value="Miscdevice" style="shape=module;align=left;spacingLeft=20;align=center;verticalAlign=top;whiteSpace=wrap;html=1;" vertex="1" parent="1">
          <mxGeometry x="170" y="-370" width="100" height="50" as="geometry" />
        </mxCell>
        <mxCell id="Tlad2of-mxlrijfLI39x-21" value="simulator" style="shape=module;align=left;spacingLeft=20;align=center;verticalAlign=top;whiteSpace=wrap;html=1;" vertex="1" parent="1">
          <mxGeometry x="315" y="-370" width="100" height="50" as="geometry" />
        </mxCell>
        <mxCell id="Tlad2of-mxlrijfLI39x-22" value="sysfs" style="shape=module;align=left;spacingLeft=20;align=center;verticalAlign=top;whiteSpace=wrap;html=1;" vertex="1" parent="1">
          <mxGeometry x="455" y="-370" width="100" height="50" as="geometry" />
        </mxCell>
        <mxCell id="Tlad2of-mxlrijfLI39x-23" value="locks" style="shape=module;align=left;spacingLeft=20;align=center;verticalAlign=top;whiteSpace=wrap;html=1;" vertex="1" parent="1">
          <mxGeometry x="605" y="-370" width="100" height="50" as="geometry" />
        </mxCell>
        <mxCell id="Tlad2of-mxlrijfLI39x-24" value="simtemp_main" style="shape=module;align=left;spacingLeft=20;align=center;verticalAlign=top;whiteSpace=wrap;html=1;" vertex="1" parent="1">
          <mxGeometry x="425" y="-470" width="100" height="50" as="geometry" />
        </mxCell>
        <mxCell id="Tlad2of-mxlrijfLI39x-29" value="&lt;p style=&quot;margin:0px;margin-top:6px;text-align:center;&quot;&gt;&lt;b&gt;CLI&lt;/b&gt;&lt;/p&gt;&lt;hr size=&quot;1&quot; style=&quot;border-style:solid;&quot;&gt;&lt;p style=&quot;margin:0px;margin-left:8px;&quot;&gt;&lt;br&gt;&lt;/p&gt;" style="align=left;overflow=fill;html=1;dropTarget=0;whiteSpace=wrap;" vertex="1" parent="1">
          <mxGeometry x="192" y="-1000" width="460" height="275" as="geometry" />
        </mxCell>
        <mxCell id="Tlad2of-mxlrijfLI39x-30" value="" style="shape=component;jettyWidth=8;jettyHeight=4;" vertex="1" parent="Tlad2of-mxlrijfLI39x-29">
          <mxGeometry x="1" width="20" height="20" relative="1" as="geometry">
            <mxPoint x="-24" y="4" as="offset" />
          </mxGeometry>
        </mxCell>
        <mxCell id="Tlad2of-mxlrijfLI39x-31" value="User space" style="shape=umlFrame;whiteSpace=wrap;html=1;pointerEvents=0;width=120;height=20;" vertex="1" parent="1">
          <mxGeometry x="40" y="-1080" width="760" height="410" as="geometry" />
        </mxCell>
        <mxCell id="Tlad2of-mxlrijfLI39x-32" value="main.py" style="shape=module;align=left;spacingLeft=20;align=center;verticalAlign=top;whiteSpace=wrap;html=1;" vertex="1" parent="1">
          <mxGeometry x="360" y="-945" width="100" height="50" as="geometry" />
        </mxCell>
        <mxCell id="Tlad2of-mxlrijfLI39x-33" value="print_samples.py" style="shape=module;align=left;spacingLeft=20;align=center;verticalAlign=top;whiteSpace=wrap;html=1;" vertex="1" parent="1">
          <mxGeometry x="200" y="-855" width="130" height="50" as="geometry" />
        </mxCell>
        <mxCell id="Tlad2of-mxlrijfLI39x-34" value="test_mode.py" style="shape=module;align=left;spacingLeft=20;align=center;verticalAlign=top;whiteSpace=wrap;html=1;" vertex="1" parent="1">
          <mxGeometry x="360" y="-855" width="100" height="50" as="geometry" />
        </mxCell>
        <mxCell id="Tlad2of-mxlrijfLI39x-35" value="configuration.py" style="shape=module;align=left;spacingLeft=20;align=center;verticalAlign=top;whiteSpace=wrap;html=1;" vertex="1" parent="1">
          <mxGeometry x="490" y="-855" width="120" height="50" as="geometry" />
        </mxCell>
        <mxCell id="Tlad2of-mxlrijfLI39x-36" value="config_file.py" style="shape=module;align=left;spacingLeft=20;align=center;verticalAlign=top;whiteSpace=wrap;html=1;" vertex="1" parent="1">
          <mxGeometry x="355" y="-795" width="120" height="50" as="geometry" />
        </mxCell>
        <mxCell id="Tlad2of-mxlrijfLI39x-38" value="&lt;font style=&quot;font-size: 14px;&quot;&gt;/dev/simtemp&lt;/font&gt;" style="endArrow=open;endSize=12;dashed=1;html=1;rounded=0;entryX=0.25;entryY=1;entryDx=0;entryDy=0;exitX=0.311;exitY=-0.01;exitDx=0;exitDy=0;exitPerimeter=0;" edge="1" parent="1" source="Tlad2of-mxlrijfLI39x-18" target="Tlad2of-mxlrijfLI39x-29">
          <mxGeometry width="160" relative="1" as="geometry">
            <mxPoint x="810" y="-630" as="sourcePoint" />
            <mxPoint x="970" y="-630" as="targetPoint" />
          </mxGeometry>
        </mxCell>
        <mxCell id="Tlad2of-mxlrijfLI39x-39" value="&lt;font style=&quot;font-size: 14px;&quot;&gt;/sys/class/misc/simtemp/&lt;/font&gt;" style="endArrow=open;endSize=12;dashed=1;html=1;rounded=0;exitX=0.668;exitY=-0.002;exitDx=0;exitDy=0;entryX=0.75;entryY=1;entryDx=0;entryDy=0;exitPerimeter=0;" edge="1" parent="1" source="Tlad2of-mxlrijfLI39x-18" target="Tlad2of-mxlrijfLI39x-29">
          <mxGeometry width="160" relative="1" as="geometry">
            <mxPoint x="710" y="-610" as="sourcePoint" />
            <mxPoint x="870" y="-610" as="targetPoint" />
          </mxGeometry>
        </mxCell>
      </root>
    </mxGraphModel>
  </diagram>
</mxfile>
